<?xml version="1.0" encoding="UTF-8" standalone="no"?>
<!DOCTYPE svg PUBLIC "-//W3C//DTD SVG 1.1//EN"
 "http://www.w3.org/Graphics/SVG/1.1/DTD/svg11.dtd">
<!-- Generated by graphviz version 14.1.2 (0)
 -->
<!-- Title: RBT Pages: 1 -->
<svg width="300pt" height="310pt"
 viewBox="0.00 0.00 300.00 310.00" xmlns="http://www.w3.org/2000/svg" xmlns:xlink="http://www.w3.org/1999/xlink">
<g id="graph0" class="graph" transform="scale(1 1) rotate(0) translate(4 306)">
<title>RBT</title>
<polygon fill="white" stroke="none" points="-4,4 -4,-306 295.5,-306 295.5,4 -4,4"/>
<!-- [2, 10] -->
<g id="node1" class="node">
<title>[2, 10]</title>
<path fill="red" stroke="white" d="M12,-85C12,-85 42,-85 42,-85 48,-85 54,-91 54,-97 54,-97 54,-120.5 54,-120.5 54,-126.5 48,-132.5 42,-132.5 42,-132.5 12,-132.5 12,-132.5 6,-132.5 0,-126.5 0,-120.5 0,-120.5 0,-97 0,-97 0,-91 6,-85 12,-85"/>
<text xml:space="preserve" text-anchor="middle" x="26.75" y="-115.2" font-family="Arial" font-size="14.00" fill="white">[2, 10]</text>
<polyline fill="none" stroke="white" points="0,-108.75 53.5,-108.75"/>
<text xml:space="preserve" text-anchor="middle" x="10.38" y="-91.45" font-family="Arial" font-size="14.00" fill="white">I</text>
<polyline fill="none" stroke="white" points="20.75,-85 20.75,-108.75"/>
<text xml:space="preserve" text-anchor="middle" x="36.75" y="-91.45" font-family="Arial" font-size="14.00" fill="white">10</text>
</g>
<!-- [5, 15] -->
<g id="node2" class="node">
<title>[5, 15]</title>
<path fill="black" stroke="white" d="M88,-169.5C88,-169.5 118,-169.5 118,-169.5 124,-169.5 130,-175.5 130,-181.5 130,-181.5 130,-205 130,-205 130,-211 124,-217 118,-217 118,-217 88,-217 88,-217 82,-217 76,-211 76,-205 76,-205 76,-181.5 76,-181.5 76,-175.5 82,-169.5 88,-169.5"/>
<text xml:space="preserve" text-anchor="middle" x="102.88" y="-199.7" font-family="Arial" font-size="14.00" fill="white">[5, 15]</text>
<polyline fill="none" stroke="white" points="76,-193.25 129.75,-193.25"/>
<text xml:space="preserve" text-anchor="middle" x="87.38" y="-175.95" font-family="Arial" font-size="14.00" fill="white">J</text>
<polyline fill="none" stroke="white" points="98.75,-169.5 98.75,-193.25"/>
<text xml:space="preserve" text-anchor="middle" x="114.25" y="-175.95" font-family="Arial" font-size="14.00" fill="white">20</text>
</g>
<!-- [5, 15]&#45;&gt;[2, 10] -->
<g id="edge1" class="edge">
<title>[5, 15]&#45;&gt;[2, 10]</title>
<path fill="none" stroke="black" d="M81.83,-169.27C73.83,-160.58 64.57,-150.54 55.98,-141.21"/>
<polygon fill="black" stroke="black" points="58.7,-138.99 49.35,-134.01 53.55,-143.73 58.7,-138.99"/>
</g>
<!-- [12, 20] -->
<g id="node3" class="node">
<title>[12, 20]</title>
<path fill="red" stroke="white" d="M84.5,-85C84.5,-85 121.5,-85 121.5,-85 127.5,-85 133.5,-91 133.5,-97 133.5,-97 133.5,-120.5 133.5,-120.5 133.5,-126.5 127.5,-132.5 121.5,-132.5 121.5,-132.5 84.5,-132.5 84.5,-132.5 78.5,-132.5 72.5,-126.5 72.5,-120.5 72.5,-120.5 72.5,-97 72.5,-97 72.5,-91 78.5,-85 84.5,-85"/>
<text xml:space="preserve" text-anchor="middle" x="103" y="-115.2" font-family="Arial" font-size="14.00" fill="white">[12, 20]</text>
<polyline fill="none" stroke="white" points="72.5,-108.75 133.5,-108.75"/>
<text xml:space="preserve" text-anchor="middle" x="86.38" y="-91.45" font-family="Arial" font-size="14.00" fill="white">C</text>
<polyline fill="none" stroke="white" points="100.25,-85 100.25,-108.75"/>
<text xml:space="preserve" text-anchor="middle" x="116.75" y="-91.45" font-family="Arial" font-size="14.00" fill="white">20</text>
</g>
<!-- [5, 15]&#45;&gt;[12, 20] -->
<g id="edge2" class="edge">
<title>[5, 15]&#45;&gt;[12, 20]</title>
<path fill="none" stroke="black" d="M103,-169.27C103,-161.56 103,-152.78 103,-144.37"/>
<polygon fill="black" stroke="black" points="106.5,-144.41 103,-134.41 99.5,-144.41 106.5,-144.41"/>
</g>
<!-- [18, 25] -->
<g id="node4" class="node">
<title>[18, 25]</title>
<path fill="black" stroke="white" d="M123.5,-254C123.5,-254 160.5,-254 160.5,-254 166.5,-254 172.5,-260 172.5,-266 172.5,-266 172.5,-289.5 172.5,-289.5 172.5,-295.5 166.5,-301.5 160.5,-301.5 160.5,-301.5 123.5,-301.5 123.5,-301.5 117.5,-301.5 111.5,-295.5 111.5,-289.5 111.5,-289.5 111.5,-266 111.5,-266 111.5,-260 117.5,-254 123.5,-254"/>
<text xml:space="preserve" text-anchor="middle" x="142" y="-284.2" font-family="Arial" font-size="14.00" fill="white">[18, 25]</text>
<polyline fill="none" stroke="white" points="111.5,-277.75 172.5,-277.75"/>
<text xml:space="preserve" text-anchor="middle" x="125" y="-260.45" font-family="Arial" font-size="14.00" fill="white">B</text>
<polyline fill="none" stroke="white" points="138.5,-254 138.5,-277.75"/>
<text xml:space="preserve" text-anchor="middle" x="155.5" y="-260.45" font-family="Arial" font-size="14.00" fill="white">55</text>
</g>
<!-- [18, 25]&#45;&gt;[5, 15] -->
<g id="edge3" class="edge">
<title>[18, 25]&#45;&gt;[5, 15]</title>
<path fill="none" stroke="black" d="M131.14,-253.77C127.32,-245.7 122.96,-236.47 118.82,-227.72"/>
<polygon fill="black" stroke="black" points="122.03,-226.31 114.59,-218.76 115.7,-229.3 122.03,-226.31"/>
</g>
<!-- [38, 45] -->
<g id="node5" class="node">
<title>[38, 45]</title>
<path fill="red" stroke="white" d="M163.5,-169.5C163.5,-169.5 200.5,-169.5 200.5,-169.5 206.5,-169.5 212.5,-175.5 212.5,-181.5 212.5,-181.5 212.5,-205 212.5,-205 212.5,-211 206.5,-217 200.5,-217 200.5,-217 163.5,-217 163.5,-217 157.5,-217 151.5,-211 151.5,-205 151.5,-205 151.5,-181.5 151.5,-181.5 151.5,-175.5 157.5,-169.5 163.5,-169.5"/>
<text xml:space="preserve" text-anchor="middle" x="182" y="-199.7" font-family="Arial" font-size="14.00" fill="white">[38, 45]</text>
<polyline fill="none" stroke="white" points="151.5,-193.25 212.5,-193.25"/>
<text xml:space="preserve" text-anchor="middle" x="165" y="-175.95" font-family="Arial" font-size="14.00" fill="white">A</text>
<polyline fill="none" stroke="white" points="178.5,-169.5 178.5,-193.25"/>
<text xml:space="preserve" text-anchor="middle" x="195.5" y="-175.95" font-family="Arial" font-size="14.00" fill="white">55</text>
</g>
<!-- [18, 25]&#45;&gt;[38, 45] -->
<g id="edge4" class="edge">
<title>[18, 25]&#45;&gt;[38, 45]</title>
<path fill="none" stroke="black" d="M153.14,-253.77C157.05,-245.7 161.53,-236.47 165.77,-227.72"/>
<polygon fill="black" stroke="black" points="168.91,-229.28 170.12,-218.76 162.61,-226.23 168.91,-229.28"/>
</g>
<!-- [28, 35] -->
<g id="node7" class="node">
<title>[28, 35]</title>
<path fill="black" stroke="white" d="M163.5,-85C163.5,-85 200.5,-85 200.5,-85 206.5,-85 212.5,-91 212.5,-97 212.5,-97 212.5,-120.5 212.5,-120.5 212.5,-126.5 206.5,-132.5 200.5,-132.5 200.5,-132.5 163.5,-132.5 163.5,-132.5 157.5,-132.5 151.5,-126.5 151.5,-120.5 151.5,-120.5 151.5,-97 151.5,-97 151.5,-91 157.5,-85 163.5,-85"/>
<text xml:space="preserve" text-anchor="middle" x="182" y="-115.2" font-family="Arial" font-size="14.00" fill="white">[28, 35]</text>
<polyline fill="none" stroke="white" points="151.5,-108.75 212.5,-108.75"/>
<text xml:space="preserve" text-anchor="middle" x="165" y="-91.45" font-family="Arial" font-size="14.00" fill="white">E</text>
<polyline fill="none" stroke="white" points="178.5,-85 178.5,-108.75"/>
<text xml:space="preserve" text-anchor="middle" x="195.5" y="-91.45" font-family="Arial" font-size="14.00" fill="white">40</text>
</g>
<!-- [38, 45]&#45;&gt;[28, 35] -->
<g id="edge7" class="edge">
<title>[38, 45]&#45;&gt;[28, 35]</title>
<path fill="none" stroke="black" d="M182,-169.27C182,-161.56 182,-152.78 182,-144.37"/>
<polygon fill="black" stroke="black" points="185.5,-144.41 182,-134.41 178.5,-144.41 185.5,-144.41"/>
</g>
<!-- [42, 50] -->
<g id="node9" class="node">
<title>[42, 50]</title>
<path fill="black" stroke="white" d="M242.5,-85C242.5,-85 279.5,-85 279.5,-85 285.5,-85 291.5,-91 291.5,-97 291.5,-97 291.5,-120.5 291.5,-120.5 291.5,-126.5 285.5,-132.5 279.5,-132.5 279.5,-132.5 242.5,-132.5 242.5,-132.5 236.5,-132.5 230.5,-126.5 230.5,-120.5 230.5,-120.5 230.5,-97 230.5,-97 230.5,-91 236.5,-85 242.5,-85"/>
<text xml:space="preserve" text-anchor="middle" x="261" y="-115.2" font-family="Arial" font-size="14.00" fill="white">[42, 50]</text>
<polyline fill="none" stroke="white" points="230.5,-108.75 291.5,-108.75"/>
<text xml:space="preserve" text-anchor="middle" x="244.38" y="-91.45" font-family="Arial" font-size="14.00" fill="white">D</text>
<polyline fill="none" stroke="white" points="258.25,-85 258.25,-108.75"/>
<text xml:space="preserve" text-anchor="middle" x="274.75" y="-91.45" font-family="Arial" font-size="14.00" fill="white">55</text>
</g>
<!-- [38, 45]&#45;&gt;[42, 50] -->
<g id="edge8" class="edge">
<title>[38, 45]&#45;&gt;[42, 50]</title>
<path fill="none" stroke="black" d="M204.01,-169.27C212.33,-160.58 221.94,-150.54 230.88,-141.21"/>
<polygon fill="black" stroke="black" points="233.4,-143.63 237.79,-133.99 228.35,-138.79 233.4,-143.63"/>
</g>
<!-- [22, 30] -->
<g id="node6" class="node">
<title>[22, 30]</title>
<path fill="red" stroke="white" d="M84.5,-0.5C84.5,-0.5 121.5,-0.5 121.5,-0.5 127.5,-0.5 133.5,-6.5 133.5,-12.5 133.5,-12.5 133.5,-36 133.5,-36 133.5,-42 127.5,-48 121.5,-48 121.5,-48 84.5,-48 84.5,-48 78.5,-48 72.5,-42 72.5,-36 72.5,-36 72.5,-12.5 72.5,-12.5 72.5,-6.5 78.5,-0.5 84.5,-0.5"/>
<text xml:space="preserve" text-anchor="middle" x="103" y="-30.7" font-family="Arial" font-size="14.00" fill="white">[22, 30]</text>
<polyline fill="none" stroke="white" points="72.5,-24.25 133.5,-24.25"/>
<text xml:space="preserve" text-anchor="middle" x="86.38" y="-6.95" font-family="Arial" font-size="14.00" fill="white">H</text>
<polyline fill="none" stroke="white" points="100.25,-0.5 100.25,-24.25"/>
<text xml:space="preserve" text-anchor="middle" x="116.75" y="-6.95" font-family="Arial" font-size="14.00" fill="white">30</text>
</g>
<!-- [28, 35]&#45;&gt;[22, 30] -->
<g id="edge5" class="edge">
<title>[28, 35]&#45;&gt;[22, 30]</title>
<path fill="none" stroke="black" d="M159.99,-84.77C151.67,-76.08 142.06,-66.04 133.12,-56.71"/>
<polygon fill="black" stroke="black" points="135.65,-54.29 126.21,-49.49 130.6,-59.13 135.65,-54.29"/>
</g>
<!-- [32, 40] -->
<g id="node8" class="node">
<title>[32, 40]</title>
<path fill="red" stroke="white" d="M163.5,-0.5C163.5,-0.5 200.5,-0.5 200.5,-0.5 206.5,-0.5 212.5,-6.5 212.5,-12.5 212.5,-12.5 212.5,-36 212.5,-36 212.5,-42 206.5,-48 200.5,-48 200.5,-48 163.5,-48 163.5,-48 157.5,-48 151.5,-42 151.5,-36 151.5,-36 151.5,-12.5 151.5,-12.5 151.5,-6.5 157.5,-0.5 163.5,-0.5"/>
<text xml:space="preserve" text-anchor="middle" x="182" y="-30.7" font-family="Arial" font-size="14.00" fill="white">[32, 40]</text>
<polyline fill="none" stroke="white" points="151.5,-24.25 212.5,-24.25"/>
<text xml:space="preserve" text-anchor="middle" x="164.62" y="-6.95" font-family="Arial" font-size="14.00" fill="white">F</text>
<polyline fill="none" stroke="white" points="177.75,-0.5 177.75,-24.25"/>
<text xml:space="preserve" text-anchor="middle" x="194.75" y="-6.95" font-family="Arial" font-size="14.00" fill="white">40</text>
</g>
<!-- [28, 35]&#45;&gt;[32, 40] -->
<g id="edge6" class="edge">
<title>[28, 35]&#45;&gt;[32, 40]</title>
<path fill="none" stroke="black" d="M182,-84.77C182,-77.06 182,-68.28 182,-59.87"/>
<polygon fill="black" stroke="black" points="185.5,-59.91 182,-49.91 178.5,-59.91 185.5,-59.91"/>
</g>
<!-- [48, 55] -->
<g id="node10" class="node">
<title>[48, 55]</title>
<path fill="red" stroke="white" d="M242.5,-0.5C242.5,-0.5 279.5,-0.5 279.5,-0.5 285.5,-0.5 291.5,-6.5 291.5,-12.5 291.5,-12.5 291.5,-36 291.5,-36 291.5,-42 285.5,-48 279.5,-48 279.5,-48 242.5,-48 242.5,-48 236.5,-48 230.5,-42 230.5,-36 230.5,-36 230.5,-12.5 230.5,-12.5 230.5,-6.5 236.5,-0.5 242.5,-0.5"/>
<text xml:space="preserve" text-anchor="middle" x="261" y="-30.7" font-family="Arial" font-size="14.00" fill="white">[48, 55]</text>
<polyline fill="none" stroke="white" points="230.5,-24.25 291.5,-24.25"/>
<text xml:space="preserve" text-anchor="middle" x="244.62" y="-6.95" font-family="Arial" font-size="14.00" fill="white">G</text>
<polyline fill="none" stroke="white" points="258.75,-0.5 258.75,-24.25"/>
<text xml:space="preserve" text-anchor="middle" x="274.75" y="-6.95" font-family="Arial" font-size="14.00" fill="white">55</text>
</g>
<!-- [42, 50]&#45;&gt;[48, 55] -->
<g id="edge9" class="edge">
<title>[42, 50]&#45;&gt;[48, 55]</title>
<path fill="none" stroke="black" d="M261,-84.77C261,-77.06 261,-68.28 261,-59.87"/>
<polygon fill="black" stroke="black" points="264.5,-59.91 261,-49.91 257.5,-59.91 264.5,-59.91"/>
</g>
</g>
</svg>
